Coordinates
version=1
nRows=19
nColumns=36
inDegrees=yes

Units are S.I. units (second, meters, Newtons, ...)
If the header above contains a line with 'inDegrees', this indicates whether rotational values are in degrees (yes) or radians (no).

endheader
time	pelvis_tilt	pelvis_list	pelvis_rotation	pelvis_tx	pelvis_ty	pelvis_tz	hip_flexion_r	hip_adduction_r	hip_rotation_r	knee_angle_r	knee_angle_r_beta	ankle_angle_r	subtalar_angle_r	mtp_angle_r	hip_flexion_l	hip_adduction_l	hip_rotation_l	knee_angle_l	knee_angle_l_beta	ankle_angle_l	subtalar_angle_l	mtp_angle_l	lumbar_extension	lumbar_bending	lumbar_rotation	arm_flex_r	arm_add_r	arm_rot_r	elbow_flex_r	pro_sup_r	arm_flex_l	arm_add_l	arm_rot_l	elbow_flex_l	pro_sup_l
      4.50000000	     23.16060654	      3.56767420	      4.03198896	      0.17354684	      1.22073401	      0.17113241	    -28.25218933	      1.99275894	     -4.35668933	      6.49942864	      0.11343643	     20.29074102	     -4.72589231	     -7.49999987	    -29.80629483	      2.96994909	     -9.25903362	      6.05857811	      0.10574214	     20.82834357	      0.52851633	     -7.49999987	    -47.18150809	      1.11549260	      4.06962508	     11.93348750	     -5.95023461	      9.29175712	     23.46487066	     75.79504552	     11.08206342	     -5.72949910	     21.02825621	     23.11058989	     71.52324843
      4.51666670	     23.73339356	      3.69425751	      3.72773611	      0.17454808	      1.22088571	      0.17130989	    -27.94977634	      1.60383157	     -4.65178707	      8.72061274	      0.15220341	     21.61325361	     -4.32535306	     -7.49999987	    -29.76321950	      3.14839990	     -8.80032397	      7.67104796	      0.13388504	     20.92887111	     -1.04768340	     -7.49999987	    -48.41271877	      0.97654698	      4.12488634	     11.86310509	     -6.11656905	     10.19667922	     23.33019597	     73.81422563	     10.89469030	     -5.75798723	     21.89009754	     23.19313897	     70.50099927
      4.53333330	     24.55027575	      3.93286359	      3.40395645	      0.17312197	      1.21691636	      0.17223840	    -27.62883491	      1.13305834	     -4.75135339	     11.37370894	      0.19850867	     22.97114320	     -4.28488197	     -7.49999987	    -29.65692006	      3.39856468	     -8.09203802	      9.85775032	      0.17205020	     20.88101184	     -3.28929004	     -7.49999987	    -50.09786702	      0.74668208	      4.21662470	     11.78283195	     -6.17714873	      9.37406104	     23.41825749	     75.96522464	     10.85979239	     -5.77502601	     21.84824172	     23.32585964	     73.85074804
      4.55000000	     25.50241598	      4.15981415	      3.09580354	      0.17365809	      1.21571720	      0.17339810	    -27.32502229	      0.73443625	     -4.48352771	     14.29505558	      0.24949579	     24.27858556	     -4.68792322	     -7.49999987	    -29.30472663	      3.54926577	     -7.44419454	     12.81410120	      0.22364826	     20.91681476	     -5.67616342	     -7.49999987	    -51.95325222	      0.49712473	      4.30448743	     11.98448734	     -6.46840214	     11.34949041	     23.16282666	     72.36974589	     11.06255667	     -5.98400580	     24.07938281	     23.42159510	     70.81864842
      4.56666670	     24.84936326	      4.34291476	      3.04283287	      0.17068877	      1.21107622	      0.17421486	    -24.23474917	      0.31864149	     -4.15423043	     18.90671290	      0.32998439	     26.13604630	     -5.66002306	     -7.49999987	    -25.91391155	      3.62043792	     -6.35393788	     17.97458566	      0.31371570	     21.30724553	     -9.15170094	     -7.49999987	    -52.73695146	      0.29823971	      4.43276463	     11.85390515	     -6.43841545	      9.11378278	     23.84504579	     75.46088948	     11.29585204	     -5.99100209	     23.46093515	     23.75172426	     76.05728708
      4.58333330	     18.74001993	      4.04928867	      3.66715958	      0.16821132	      1.19564056	      0.17537789	    -12.52058196	      0.15063198	     -3.20905188	     28.17036891	      0.49166569	     28.84652607	     -8.07599683	     -7.49999987	    -13.44330891	      3.29112927	     -4.94717370	     28.69832182	      0.50088021	     23.00811673	    -13.55940069	     -7.49999987	    -48.69482564	      0.35474429	      4.30785777	     12.08924379	     -6.42465306	      9.05805884	     23.80373705	     75.17147735	     11.55073416	     -6.00001122	     23.89867380	     23.62295716	     76.36242746
      4.60000000	      7.69101784	      3.16507912	      4.31622918	      0.16459839	      1.16663001	      0.17553661	      6.01131623	      0.41842797	     -1.50445283	     39.71877982	      0.69322348	     31.86596413	    -10.75103701	     -7.49999987	      5.53500910	      3.11010536	     -3.66093647	     41.07604589	      0.71691224	     24.77044748	    -17.78390707	     -7.49999987	    -38.72780575	      0.39338570	      4.57857815	     11.27207929	     -6.37259269	      8.96116834	     23.32632428	     74.87855566	     11.03037811	     -5.95341055	     24.88296272	     22.86791312	     77.29344491
      4.61666670	     -1.47785375	      2.37824952	      4.68326080	      0.16473414	      1.13948873	      0.17568753	     20.85111326	      0.96269937	      0.01127807	     48.32261318	      0.84338870	     33.74218198	    -12.90971161	     -7.49999987	     20.59319555	      3.13976529	     -2.92898206	     49.96863672	      0.87211723	     25.63783581	    -20.36210459	     -7.49999987	    -29.32342665	      0.43293850	      4.69256623	      9.68206017	     -6.25428382	      8.85010131	     23.00652669	     74.62651931	      9.47909860	     -6.11544177	     25.93604932	     22.50103855	     77.99282800
      4.63333330	     -6.90931449	      1.93793743	      4.80298776	      0.16916530	      1.11739474	      0.17474778	     29.89205595	      1.36998686	      1.00846788	     54.17373965	      0.94551012	     35.15945281	    -14.19580710	     -7.49999987	     29.64194570	      3.26625059	     -2.57334690	     55.77740668	      0.97349939	     26.52716021	    -21.64420570	     -7.49999987	    -23.49106366	      0.39589263	      4.77743157	      8.44717234	     -6.28264768	      9.76692907	     22.56704912	     72.75604702	      8.38316171	     -6.36588372	     28.48309049	     21.89520230	     76.98221335
      4.65000000	     -9.98168444	      1.76566430	      4.90113108	      0.17522208	      1.10216409	      0.17424225	     35.45546368	      1.59774507	      1.66152798	     58.86774529	      1.02743598	     36.65241445	    -14.99197125	     -7.49999987	     35.07737250	      3.54569469	     -2.27643823	     60.16352261	      1.05005156	     27.66919299	    -22.33226299	     -7.49999987	    -20.39876889	      0.30458835	      4.66482566	      7.53920750	     -6.23716692	      9.61702020	     22.64550466	     72.76590440	      7.55251691	     -6.63077784	     29.22437101	     21.93845036	     77.46601545
      4.66666670	    -11.61169419	      1.58400710	      5.10045632	      0.18267597	      1.09311317	      0.17330152	     38.55523047	      1.85104660	      2.02769031	     62.35848431	      1.08836087	     37.71970343	    -15.74075559	     -7.49999987	     38.24367593	      3.83396700	     -1.73494372	     63.48374315	      1.10800034	     28.58948733	    -22.83821526	     -7.49999987	    -18.85538178	      0.41508829	      4.44325162	      7.17147912	     -6.19017858	      9.53172801	     22.19807935	     72.72789612	      7.28237941	     -6.73351053	     30.16412685	     21.46528144	     77.93642867
      4.68333330	    -11.35980454	      1.60204263	      5.24770350	      0.19331448	      1.08838498	      0.17208082	     38.72916605	      2.06778949	      2.37926698	     64.59485593	      1.12739292	     38.57991886	    -16.37738070	     -7.49999987	     38.42696216	      4.19840758	     -1.15068522	     65.55816683	      1.14420586	     29.42953227	    -23.32047897	     -7.49999987	    -19.79615444	      0.46987670	      4.29350762	      7.30668905	     -6.24173884	      9.51249455	     22.03129818	     72.71420846	      7.70992408	     -6.77730503	     30.28707247	     21.37828956	     77.99769199
      4.70000000	    -12.10932454	      1.40183755	      5.48765658	      0.20263716	      1.08363961	      0.17068281	     39.70405939	      2.40872079	      2.59180492	     66.32038481	      1.15750908	     39.77424400	    -16.39107134	     -7.49999987	     39.45613043	      4.41055331	     -0.59329399	     67.47325254	      1.17763041	     31.63156420	    -22.17590989	     -7.49999987	    -18.87870471	      0.70866989	      3.88799233	      7.30665837	     -6.04868396	      9.48878889	     21.07782744	     72.62163305	      7.92616512	     -6.92588945	     31.95025995	     20.75151794	     78.65885840
      4.71666670	    -11.60754845	      1.64551517	      5.53527559	      0.21389243	      1.08023512	      0.17112143	     38.86737590	      2.58020374	      3.00383279	     67.50420044	      1.17817056	     39.95958812	    -17.45008772	     -7.49999987	     38.30984515	      4.84518295	     -0.28601364	     68.21270879	      1.19053636	     33.08549605	    -21.92189969	     -7.49999987	    -19.65899697	      0.49245419	      3.77087199	      7.65884314	     -5.89964389	      9.62885010	     20.38585045	     72.53633034	      8.92199355	     -7.09092309	     33.42635513	     20.41286571	     79.19978290
      4.73333330	    -10.09400244	      1.77822673	      5.64349414	      0.22994223	      1.08776744	      0.16846637	     35.81688300	      2.83465942	      3.16432569	     67.06973293	      1.17058767	     39.84887857	    -17.99284377	     -7.49999987	     35.27724972	      5.16192160	      0.34389432	     67.61253820	      1.18006141	     33.88008384	    -21.56921090	     -7.49999987	    -21.45751776	      0.51113645	      3.50528050	      8.34392992	     -5.73634528	      9.70000496	     19.62814707	     72.47138626	     10.10801501	     -7.04492821	     34.64150258	     20.00913969	     79.66344031
      4.75000000	     -8.14704822	      2.21354242	      5.56222552	      0.24485009	      1.08878136	      0.16844496	     31.86738002	      2.79236405	      3.34382519	     66.01529122	      1.15218419	     39.95958445	    -18.06061745	     -7.49999987	     31.01068793	      5.53443551	      0.68097181	     65.95833707	      1.15119015	     34.82886292	    -21.33697060	     -7.49999987	    -23.52034744	      0.19980191	      3.58181953	      8.74206646	     -5.65956985	      9.84907759	     19.47067216	     72.02135964	     11.62194194	     -7.27685699	     37.43116850	     20.13000145	     80.33825550
      4.76666670	     -4.99416899	      2.87286472	      5.35408635	      0.26011267	      1.10337710	      0.16716318	     25.58294192	      2.45428381	      3.46553335	     63.46048874	      1.10759447	     39.03215683	    -17.96773639	     -7.49999987	     24.41582411	      5.91103240	      0.95146804	     62.46436641	      1.09020886	     34.25211077	    -21.16318377	     -7.49999987	    -26.79405817	     -0.21417272	      3.31085442	      9.73848725	     -5.38322437	      9.78179063	     18.78677144	     71.76679772	     13.03876269	     -7.43779075	     38.01040109	     20.69573828	     80.33076137
      4.78333330	     -0.47471001	      3.79832556	      4.86884027	      0.27463157	      1.12448026	      0.16730700	     17.02472492	      1.80523534	      3.62920331	     59.11348395	      1.03172493	     37.77534235	    -17.60712616	     -7.49999987	     15.07478855	      6.28972816	      1.01760525	     56.68126265	      0.98927466	     32.62167736	    -21.11800079	     -7.49999987	    -31.38359791	     -0.92353137	      3.12089367	     10.75015953	     -5.03901406	      9.72113087	     18.30426827	     71.54869894	     14.64212047	     -7.61382992	     38.62369353	     21.45472360	     80.41022486
      4.80000000	      6.41380482	      4.25316977	      4.51446580	      0.29406049	      1.15132611	      0.16656805	      4.30666256	      1.57497132	      3.20644429	     51.67853301	      0.90196055	     35.80456654	    -17.08229268	     -7.49999987	      2.09667202	      5.86254880	      1.36249010	     48.66918240	      0.84943748	     30.12506504	    -20.48134376	     -7.49999987	    -37.94719717	     -0.78606029	      3.19785706	     11.36510035	     -5.12587256	      9.79956165	     19.04210277	     71.33952208	     16.07223570	     -7.92227973	     39.60102008	     23.28711344	     80.66493900
